<svg width="94" height="94" viewBox="0 0 94 94" fill="none" xmlns="http://www.w3.org/2000/svg">
<rect x="0.25" y="0.25" width="93.5" height="93.5" rx="46.75" fill="white"/>
<rect x="0.25" y="0.25" width="93.5" height="93.5" rx="46.75" stroke="#2D2D2D" stroke-width="0.5"/>
<path d="M65.3157 49.0002C64.9799 49.0002 64.7052 48.7255 64.7052 48.3897V47.1687C64.7052 44.1246 60.2093 42.9902 57.3777 42.9902C57.1884 42.9902 57.0089 42.9023 56.8941 42.7521L54.1468 39.1842C53.9416 38.9168 53.9917 38.5358 54.2591 38.3282C54.5277 38.1243 54.9099 38.1719 55.115 38.4406L57.6817 41.7728C61.1067 41.8546 65.9262 43.3223 65.9262 47.1687V48.3897C65.9262 48.7255 65.6515 49.0002 65.3157 49.0002Z" fill="#2D2D2D"/>
<path d="M41.3518 40.4526C37.7313 40.4526 34.7813 36.5196 34.5053 33.0433C33.6909 32.8137 32.957 32.1421 32.957 31.2947V28.8526C32.957 28.0895 33.6958 27.5388 34.1781 27.2604V25.1895C34.1781 22.8744 36.028 20.9842 38.326 20.9182C38.8169 20.7216 40.751 20 42.7254 20C45.8758 20 47.6097 21.8438 47.6097 25.1895V27.0748C48.8307 27.3129 48.8307 28.2934 48.8307 28.8526V31.2947C48.8307 32.1446 48.4449 32.7783 47.8221 33.0189C47.5889 36.6271 44.8989 40.4526 41.3518 40.4526ZM42.7254 21.2211C40.7449 21.2211 38.7118 22.0782 38.6923 22.088C38.6154 22.1197 38.5348 22.1368 38.4518 22.1368C36.7692 22.1368 35.3991 23.5056 35.3991 25.1895V27.6316C35.3991 27.8709 35.2575 28.0895 35.0389 28.1884C34.6042 28.385 34.2013 28.722 34.1769 28.8575V31.2947C34.1769 31.5634 34.6897 31.9053 35.0927 31.9053C35.4297 31.9053 35.7032 32.1788 35.7032 32.5158C35.7032 35.5403 38.3089 39.2316 41.3505 39.2316C44.3165 39.2316 46.6169 35.6209 46.6169 32.5158C46.6169 32.1788 46.8905 31.9053 47.2275 31.9053C47.4814 31.9053 47.6097 31.7001 47.6097 31.2947V28.8526C47.6097 28.2421 47.6097 28.2421 46.9991 28.2421C46.6621 28.2421 46.3886 27.9686 46.3886 27.6316V25.1895C46.3886 22.519 45.1908 21.2211 42.7254 21.2211Z" fill="#2D2D2D"/>
<path d="M53.7146 39.1217C52.1553 39.1217 50.8097 38.8066 49.5899 38.466C49.2639 38.3756 49.0758 38.0386 49.1662 37.7138C49.2565 37.389 49.596 37.1973 49.9171 37.2901C51.0552 37.6076 52.2994 37.9006 53.7122 37.9006C59.6794 37.9006 62.0312 34.9786 62.7785 33.6977C62.2327 32.7697 60.7259 30.1616 60.4463 28.9662C59.9615 26.9075 58.3326 22.1234 53.7122 22.1234C52.7939 22.1234 51.9197 22.331 51.1125 22.74C50.8085 22.8902 50.4446 22.7669 50.292 22.4702C50.1394 22.1698 50.2603 21.8023 50.5606 21.6496C51.5436 21.1539 52.601 20.9023 53.7134 20.9023C57.5792 20.9023 60.4646 23.7388 61.6331 28.6853C61.8712 29.6988 63.4269 32.4083 64.0032 33.3681C64.1106 33.5463 64.1204 33.7686 64.0276 33.9529C62.4122 37.19 58.5549 39.1217 53.7146 39.1217Z" fill="#2D2D2D"/>
<path d="M28.6838 48.9998C28.3468 48.9998 28.0732 48.725 28.0732 48.3892V47.1682C28.0732 43.632 30.8975 41.0629 34.789 41.0629H36.2946L37.9198 38.6379C38.1078 38.3583 38.4864 38.2826 38.7672 38.4706C39.0468 38.6562 39.1225 39.0372 38.9345 39.3168L37.1286 42.0117C37.015 42.1826 36.8245 42.284 36.6206 42.284H34.789C31.5545 42.284 29.2943 44.2938 29.2943 47.1682V48.3892C29.2943 48.725 29.0208 48.9998 28.6838 48.9998Z" fill="#2D2D2D"/>
<path d="M54.3253 49.0005C53.9895 49.0005 53.7148 48.7258 53.7148 48.39V47.1689C53.7148 44.2934 51.4974 42.2847 48.3202 42.2847H46.4886C46.2871 42.2847 46.0991 42.1858 45.9855 42.0198L44.0038 39.1381C43.8133 38.8597 43.8829 38.4799 44.1613 38.2907C44.4397 38.1026 44.8194 38.1698 45.0099 38.4506L46.8098 41.0686H48.3202C52.2141 41.0686 54.9359 43.5815 54.9359 47.1738V48.3949C54.9359 48.7258 54.6611 49.0005 54.3253 49.0005Z" fill="#2D2D2D"/>
<path d="M39.0634 47.7795C39.0268 47.7795 38.9889 47.7759 38.9523 47.7685C38.7545 47.7331 38.5872 47.6 38.5054 47.4169L36.0633 41.9221C35.9546 41.6767 36.0181 41.3873 36.2208 41.2127C36.4247 41.0344 36.719 41.0161 36.9449 41.1565L41.8291 44.2092C41.9866 44.3081 42.0904 44.4729 42.1111 44.6573C42.1331 44.838 42.0684 45.0273 41.9365 45.1555L39.4944 47.5976C39.3797 47.716 39.2234 47.7795 39.0634 47.7795ZM37.9901 43.2494L39.2612 46.1091L40.5323 44.838L37.9901 43.2494Z" fill="#2D2D2D"/>
<path d="M43.9458 47.7794C43.7858 47.7794 43.6295 47.716 43.5135 47.6012L41.0714 45.1591C40.9395 45.0321 40.8748 44.844 40.8968 44.6609C40.9176 44.4777 41.0226 44.3129 41.1789 44.214L46.0631 41.1613C46.2902 41.0197 46.5832 41.038 46.7872 41.2175C46.9898 41.3958 47.0533 41.6815 46.9447 41.9269L44.5026 47.4217C44.4208 47.6036 44.2535 47.7379 44.0557 47.7733C44.0202 47.7758 43.9824 47.7794 43.9458 47.7794ZM42.4781 44.8379L43.7492 46.109L45.0203 43.2493L42.4781 44.8379Z" fill="#2D2D2D"/>
<path d="M23.463 70V69.1211H27.213L28.297 69.0801L29.1349 69.168V70H23.463ZM27.213 69.7539V65.6699C27.213 65.0723 27.0782 64.6406 26.8087 64.375C26.5431 64.1055 26.1095 63.9707 25.5079 63.9707H23.838V63.0977H25.5665C26.465 63.0977 27.1446 63.3164 27.6056 63.7539C28.0665 64.1875 28.297 64.8359 28.297 65.6992V69.7539H27.213ZM30.8224 70V63.9707H30.0196V63.0977H31.9122V70H30.8224ZM36.881 70V65.1836C36.881 64.8086 36.7696 64.5137 36.547 64.2988C36.3282 64.0801 36.0275 63.9707 35.6446 63.9707H33.3243V63.0977H35.6798C36.3946 63.0977 36.9532 63.2891 37.3556 63.6719C37.7618 64.0508 37.965 64.582 37.965 65.2656V70H36.881ZM42.2482 70V69.1445C42.8263 69.125 43.2911 68.9434 43.6427 68.5996C43.9982 68.2559 44.1759 67.7812 44.1759 67.1758V63.9707H39.9161V63.0977H45.2657V67.1523C45.2657 67.7344 45.1407 68.2363 44.8907 68.6582C44.6407 69.0801 44.2892 69.4062 43.8361 69.6367C43.3829 69.8633 42.8536 69.9844 42.2482 70ZM40.0509 72.4375V67.4102C40.0509 67.0156 40.0841 66.7129 40.1505 66.502C40.2169 66.291 40.2853 66.1113 40.3556 65.9629H41.2462C41.1954 66.1387 41.1583 66.334 41.1349 66.5488C41.1154 66.7637 41.1056 67.0293 41.1056 67.3457V72.4375H40.0509ZM50.3634 70V63.0977H55.8712V70H50.3634ZM51.4474 69.1211H54.7872V63.9707H51.4474V69.1211ZM57.2892 63.0977H62.8146V63.9707H61.6603V70H60.5704V63.9707H57.2892V63.0977ZM69.09 70L64.0861 63.0977H65.3048L70.3028 70H69.09ZM64.3321 70V67.498C64.3321 66.8535 64.4513 66.334 64.6896 65.9395C64.9278 65.5449 65.2989 65.2559 65.8028 65.0723L66.2306 65.6348C65.6681 65.8887 65.3868 66.3789 65.3868 67.1055V70H64.3321ZM70.3321 63.0977L67.9532 67.2637L67.2325 66.4258L69.1075 63.0977H70.3321Z" fill="#2D2D2D"/>
</svg>
