<svg width="94" height="94" viewBox="0 0 94 94" fill="none" xmlns="http://www.w3.org/2000/svg">
<rect x="0.25" y="0.25" width="93.5" height="93.5" rx="46.75" fill="white"/>
<rect x="0.25" y="0.25" width="93.5" height="93.5" rx="46.75" stroke="#2D2D2D" stroke-width="0.5"/>
<path d="M61.9815 27.9213C61.9815 26.838 61.1 25.9564 60.0167 25.9564H54.053V24.2998C54.053 21.9288 52.1227 20 49.7487 20H44.246C41.8749 20 39.9461 21.9288 39.9461 24.2998V25.9564H33.9824C32.8992 25.9564 32.0176 26.838 32.0176 27.9213V45.8179C32.0176 47.5725 33.4451 49 35.1996 49H58.7978C60.5524 49 61.9799 47.5725 61.9799 45.8179V27.9213H61.9815ZM41.0683 24.2998C41.0683 22.5468 42.4944 21.1206 44.2475 21.1206H49.7503C51.5048 21.1206 52.9323 22.5468 52.9323 24.2998V25.9564H51.8102V24.2998C51.8102 23.1647 50.8854 22.2428 49.7503 22.2428H44.2475C43.1124 22.2428 42.1905 23.1662 42.1905 24.2998V25.9564H41.0683V24.2998ZM43.3112 25.9564V24.2998C43.3112 23.7842 43.7304 23.3635 44.2475 23.3635H49.7503C50.2674 23.3635 50.6895 23.7827 50.6895 24.2998V25.9564H43.3112ZM33.1398 27.9213C33.1398 27.456 33.5172 27.0785 33.9825 27.0785H60.0168C60.4821 27.0785 60.8595 27.4559 60.8595 27.9213V31.449C60.8595 34.0218 58.7665 36.1147 56.1939 36.1147H49.0733V35.5097C49.0733 34.5733 48.3099 33.8113 47.3721 33.8113H46.6288C45.691 33.8113 44.9276 34.5733 44.9276 35.5097V36.1147H37.807C35.2343 36.1147 33.1414 34.0216 33.1414 31.449V27.9213H33.1398ZM46.0482 36.6765V35.5097C46.0482 35.1914 46.3089 34.9335 46.6287 34.9335H47.372C47.6918 34.9335 47.9525 35.1928 47.9525 35.5097V37.8405C47.9525 38.1602 47.6918 38.421 47.372 38.421H46.6287C46.3089 38.421 46.0482 38.1602 46.0482 37.8405V36.6765ZM60.8594 45.8194C60.8594 46.956 59.9346 47.8793 58.7995 47.8793H35.2013C34.0647 47.8793 33.1414 46.9545 33.1414 45.8194V34.8585C34.1958 36.2961 35.8913 37.2368 37.807 37.2368H44.9276V37.8403C44.9276 38.7781 45.691 39.5416 46.6288 39.5416H47.3721C48.3099 39.5416 49.0733 38.7781 49.0733 37.8403V37.2368H56.1939C58.1097 37.2368 59.8052 36.2976 60.8595 34.8585L60.8594 45.8194Z" fill="#2D2D2D"/>
<path d="M21.8341 70.1465C21.4747 70.1465 21.088 70.1074 20.6739 70.0293C20.2638 69.9551 19.8321 69.832 19.379 69.6602L19.6427 68.8516C20.0333 69.0039 20.4005 69.1172 20.7443 69.1914C21.088 69.2656 21.4064 69.3047 21.6993 69.3086C22.3361 69.3086 22.8478 69.1348 23.2345 68.7871C23.6251 68.4395 23.8204 67.9355 23.8204 67.2754V63.0977H24.9044V67.2344C24.9044 67.8672 24.7736 68.4004 24.5118 68.834C24.254 69.2637 23.8946 69.5898 23.4337 69.8125C22.9728 70.0352 22.4396 70.1465 21.8341 70.1465ZM19.754 63.0977H20.8439L21.963 68.1895C22.0255 68.4824 22.0958 68.7305 22.1739 68.9336C22.2521 69.1367 22.3595 69.3242 22.4962 69.4961L21.6407 69.4785C21.4767 69.3105 21.3282 69.1211 21.1954 68.9102C21.0626 68.6953 20.963 68.4355 20.8966 68.1309L19.754 63.0977ZM27.3595 70V63.9707H26.5568V63.0977H28.4493V70H27.3595ZM30.2716 70V69.1211H33.9806L29.8556 63.0977H31.0802L33.1779 66.2676L35.381 69.4492V70H30.2716ZM33.3771 67.1348L32.7032 66.2617L34.4493 63.0977H35.6739L33.3771 67.1348ZM39.4532 70V69.1445C40.0314 69.125 40.4962 68.9434 40.8478 68.5996C41.2032 68.2559 41.381 67.7812 41.381 67.1758V63.9707H37.1212V63.0977H42.4708V67.1523C42.4708 67.7344 42.3458 68.2363 42.0958 68.6582C41.8458 69.0801 41.4943 69.4062 41.0411 69.6367C40.588 69.8633 40.0587 69.9844 39.4532 70ZM37.256 72.4375V67.4102C37.256 67.0156 37.2892 66.7129 37.3556 66.502C37.422 66.291 37.4904 66.1113 37.5607 65.9629H38.4513C38.4005 66.1387 38.3634 66.334 38.34 66.5488C38.3204 66.7637 38.3107 67.0293 38.3107 67.3457V72.4375H37.256ZM44.5392 70L45.0665 65.6113C45.1095 65.2871 45.2013 64.9844 45.3419 64.7031C45.4825 64.4219 45.6486 64.2051 45.84 64.0527C45.8595 64.0371 45.879 64.0234 45.8986 64.0117C45.922 63.9961 45.9415 63.9824 45.9571 63.9707L45.9454 63.9531C45.7736 63.9805 45.5548 64.0293 45.2892 64.0996C45.0275 64.166 44.7853 64.2383 44.5626 64.3164L44.3107 63.4961C44.6114 63.3906 44.9376 63.2988 45.2892 63.2207C45.6446 63.1426 46.004 63.082 46.3673 63.0391C46.7306 62.9922 47.0704 62.9688 47.3868 62.9688C48.3165 62.9688 49.0255 63.2168 49.5138 63.7129C50.006 64.2051 50.254 64.9297 50.2579 65.8867V70H47.4161V69.127H49.1739V65.7637C49.1739 65.1465 49.0333 64.6797 48.7521 64.3633C48.4747 64.043 48.0743 63.8828 47.5509 63.8828C47.172 63.8828 46.8556 64.0293 46.6017 64.3223C46.3478 64.6113 46.1915 65.0059 46.1329 65.5059L45.6114 70H44.5392ZM56.2462 63.0977V68.7754C56.6173 68.9316 57.0099 69.0566 57.4239 69.1504C57.838 69.2402 58.2345 69.2852 58.6134 69.2852C59.1642 69.2852 59.6603 69.207 60.1017 69.0508C60.5431 68.8906 60.8927 68.6484 61.1505 68.3242C61.4122 67.9961 61.5431 67.582 61.5431 67.082V63.0977H62.5978V67.1816C62.5978 67.6855 62.4943 68.125 62.2872 68.5C62.0802 68.8711 61.795 69.1816 61.4318 69.4316C61.0685 69.6777 60.6505 69.8613 60.1778 69.9824C59.7052 70.1035 59.2013 70.1641 58.6661 70.1641C58.1036 70.1641 57.5216 70.0977 56.92 69.9648C56.3185 69.8281 55.7423 69.6289 55.1915 69.3672V63.0977H56.2462ZM57.9044 68.0957C58.0528 67.9395 58.1622 67.7285 58.2325 67.4629C58.3068 67.1934 58.3439 66.8828 58.3439 66.5312V63.0977H59.4044V66.3379C59.4044 66.7324 59.3556 67.0781 59.2579 67.375C59.1642 67.6719 59.0138 67.9238 58.8068 68.1309L57.9044 68.0957ZM65.2462 66.9473V63.9707H63.9806V63.0977H66.3361V66.9473H65.2462ZM73.1739 70L68.17 63.0977H69.3888L74.3868 70H73.1739ZM68.4161 70V67.498C68.4161 66.8535 68.5353 66.334 68.7736 65.9395C69.0118 65.5449 69.3829 65.2559 69.8868 65.0723L70.3146 65.6348C69.7521 65.8887 69.4708 66.3789 69.4708 67.1055V70H68.4161ZM74.4161 63.0977L72.0372 67.2637L71.3165 66.4258L73.1915 63.0977H74.4161Z" fill="#2D2D2D"/>
</svg>
