<svg width="94" height="94" viewBox="0 0 94 94" fill="none" xmlns="http://www.w3.org/2000/svg">
<rect x="0.25" y="0.25" width="93.5" height="93.5" rx="46.75" fill="white"/>
<rect x="0.25" y="0.25" width="93.5" height="93.5" rx="46.75" stroke="#2D2D2D" stroke-width="0.5"/>
<path d="M33.4856 41.0037C33.5722 41.0037 33.6588 41.0037 33.747 40.9596C35.6582 45.7837 40.9167 49 47 49C53.0833 49 58.3419 45.7852 60.253 41.0056C60.3395 41.0056 60.4261 41.0498 60.5144 41.0498C62.6428 41.0498 64.3809 39.3117 64.3809 37.1832C64.3809 35.0547 62.6428 33.3166 60.5144 33.3166C60.4278 33.3166 60.3412 33.3166 60.253 33.3608C58.5149 28.9682 53.9524 25.9265 48.5652 25.4051C48.9997 25.0147 49.3901 24.536 49.6073 23.9708C50.086 22.9286 50.1284 21.7116 49.738 20.6253C49.6514 20.3639 49.3476 20.2349 49.1304 20.3215C48.869 20.4081 48.74 20.7119 48.8265 20.9291C49.1304 21.7982 49.1304 22.7114 48.74 23.5363C48.5227 24.0149 48.2189 24.4053 47.8268 24.7091C48.1306 22.8845 47.3057 20.9715 45.61 20.0602C45.3928 19.9295 45.0889 20.016 44.9582 20.2774C44.8275 20.4947 44.9141 20.7985 45.1755 20.9292C46.7405 21.7541 47.3923 23.6671 46.6963 25.3188C40.7859 25.4495 35.6603 28.5777 33.7471 33.3131C33.6605 33.3131 33.574 33.269 33.4857 33.269C31.3572 33.269 29.6191 35.0071 29.6191 37.1356C29.6191 39.3099 31.3572 41.0037 33.4856 41.0037ZM33.3991 34.3129C33.1377 35.2261 32.9646 36.1817 32.9646 37.1815C32.9646 37.4429 33.1818 37.6601 33.4432 37.6601C33.7046 37.6601 33.9219 37.4429 33.9219 37.1815C33.9219 36.0952 34.095 35.053 34.4871 34.0532C36.1811 29.4025 41.1779 26.3183 47.0001 26.3183C52.7354 26.3183 57.8632 29.4907 59.5148 34.0532C59.8628 35.053 60.08 36.0952 60.08 37.1815C60.08 37.4429 60.2973 37.6601 60.5587 37.6601C60.8201 37.6601 61.0374 37.4429 61.0374 37.1815C61.0374 36.1817 60.9067 35.2261 60.6028 34.3129C62.1678 34.357 63.4272 35.6165 63.4272 37.1815C63.4272 38.7889 62.1237 40.05 60.5587 40.05C60.3856 40.05 60.2107 40.05 60.0376 40.0059H59.9935H59.9069C59.8628 40.0059 59.8204 40.0059 59.7762 40.05C59.7762 40.05 59.7321 40.05 59.7321 40.0941C59.688 40.0941 59.688 40.1383 59.6455 40.1807L59.6014 40.2248C59.5573 40.269 59.5573 40.269 59.5573 40.3114C59.5573 40.3114 59.5573 40.3555 59.5131 40.3555C57.8633 44.8724 52.6933 48.0444 47.0002 48.0444C41.2206 48.0444 36.1814 44.9586 34.5298 40.3095C34.5298 40.3095 34.5298 40.2653 34.4857 40.2653C34.4857 40.2212 34.4415 40.1788 34.4415 40.1788L34.3108 40.0481C34.3108 40.0481 34.2667 40.0481 34.2667 40.004C34.2226 40.004 34.1801 39.9598 34.136 39.9598H34.0494H34.0053C33.8322 40.004 33.6573 40.004 33.4842 40.004C31.8768 40.004 30.6157 38.7004 30.6157 37.1354C30.5749 35.6163 31.8358 34.3129 33.3991 34.3129Z" fill="#2D2D2D"/>
<path d="M42.5687 36.4855C43.1764 36.4855 43.655 35.8778 43.655 35.1378C43.655 34.3994 43.1764 33.79 42.5687 33.79C41.9611 33.79 41.4824 34.3977 41.4824 35.1378C41.4824 35.8778 41.9594 36.4855 42.5687 36.4855Z" fill="#2D2D2D"/>
<path d="M51.433 36.4855C52.0406 36.4855 52.5193 35.8778 52.5193 35.1378C52.5193 34.3994 52.0406 33.79 51.433 33.79C50.8254 33.79 50.3467 34.3977 50.3467 35.1378C50.3467 35.8778 50.8254 36.4855 51.433 36.4855Z" fill="#2D2D2D"/>
<path d="M43.3066 41.8314C43.1335 42.0046 43.1335 42.3101 43.3066 42.5274C44.4371 43.6578 45.9579 44.2213 47.4346 44.2213C48.9554 44.2213 50.4321 43.6561 51.5626 42.5274C51.7357 42.3542 51.7357 42.0487 51.5626 41.8314C51.3894 41.6142 51.0839 41.6583 50.8666 41.8314C48.9554 43.7426 45.8696 43.7426 43.9586 41.8314C43.8279 41.6566 43.5239 41.6566 43.3066 41.8314Z" fill="#2D2D2D"/>
<path d="M39.3302 63.0977H44.8556V63.9707H43.7013V70H42.6114V63.9707H39.3302V63.0977ZM45.7228 63.9707V61H46.8068V63.0977H50.5568V63.9707H45.7228ZM50.9669 63.7832L48.4357 70H47.2696L50.1349 63.0977H50.9669V63.7832ZM52.9884 66.9473V63.9707H51.7228V63.0977H54.0782V66.9473H52.9884Z" fill="#2D2D2D"/>
</svg>
