<svg width="94" height="94" viewBox="0 0 94 94" fill="none" xmlns="http://www.w3.org/2000/svg">
<rect x="0.25" y="0.25" width="93.5" height="93.5" rx="46.75" fill="white"/>
<rect x="0.25" y="0.25" width="93.5" height="93.5" rx="46.75" stroke="#2D2D2D" stroke-width="0.5"/>
<path d="M47.0004 32.629C45.2639 32.629 43.7775 32.0108 42.5411 30.7744C41.3043 29.5376 40.6859 28.051 40.6859 26.3145C40.6859 24.578 41.3043 23.0914 42.5411 21.8546C43.7775 20.6182 45.2639 20 47.0004 20C48.7369 20 50.2235 20.6182 51.4603 21.8546C52.6967 23.0914 53.3149 24.578 53.3149 26.3145C53.3149 28.051 52.6967 29.5376 51.4603 30.7744C50.2235 32.0108 48.7369 32.629 47.0004 32.629ZM31.3311 49V45.9597C31.3311 45.1021 31.5942 44.2933 32.1204 43.5333C32.6466 42.7732 33.3579 42.1788 34.2544 41.75C36.3983 40.7366 38.5323 39.9765 40.6567 39.4698C42.781 38.963 44.8956 38.7097 47.0004 38.7097C49.1052 38.7097 51.2198 38.963 53.3442 39.4698C55.4685 39.9765 57.6026 40.7366 59.7464 41.75C60.6429 42.1788 61.3542 42.7732 61.8804 43.5333C62.4067 44.2933 62.6698 45.1021 62.6698 45.9597V49H31.3311ZM32.9682 47.3629H61.0327V45.9597C61.0327 45.414 60.8475 44.8975 60.4772 44.4103C60.1069 43.923 59.5905 43.504 58.9278 43.1532C57.0569 42.2567 55.114 41.5649 53.0992 41.0776C51.0848 40.5904 49.0518 40.3468 47.0004 40.3468C44.949 40.3468 42.916 40.5904 40.9016 41.0776C38.8868 41.5649 36.944 42.2567 35.073 43.1532C34.4104 43.504 33.8939 43.923 33.5236 44.4103C33.1533 44.8975 32.9682 45.414 32.9682 45.9597V47.3629ZM47.0004 30.9919C48.2867 30.9919 49.3878 30.5339 50.3038 29.6179C51.2198 28.7019 51.6778 27.6008 51.6778 26.3145C51.6778 25.0282 51.2198 23.9271 50.3038 23.0111C49.3878 22.0951 48.2867 21.6371 47.0004 21.6371C45.7141 21.6371 44.613 22.0951 43.697 23.0111C42.781 23.9271 42.323 25.0282 42.323 26.3145C42.323 27.6008 42.781 28.7019 43.697 29.6179C44.613 30.5339 45.7141 30.9919 47.0004 30.9919Z" fill="#2D2D2D"/>
<path d="M33.5587 70V65.1836C33.5587 64.8086 33.4474 64.5137 33.2247 64.2988C33.006 64.0801 32.7052 63.9707 32.3224 63.9707H30.0021V63.0977H32.3575C33.0724 63.0977 33.631 63.2891 34.0333 63.6719C34.4396 64.0508 34.6427 64.582 34.6427 65.2656V70H33.5587ZM37.4142 70L36.4767 64.0176L35.9904 63.9355V63.0977H39.3419L39.3361 63.9707H37.5548L38.5333 70H37.4142ZM43.8185 70V63.0977H49.3263V70H43.8185ZM44.9025 69.1211H48.2423V63.9707H44.9025V69.1211ZM50.7443 63.0977H56.2696V63.9707H55.1153V70H54.0255V63.9707H50.7443V63.0977ZM62.545 70L57.5411 63.0977H58.7599L63.7579 70H62.545ZM57.7872 70V67.498C57.7872 66.8535 57.9064 66.334 58.1446 65.9395C58.3829 65.5449 58.754 65.2559 59.2579 65.0723L59.6857 65.6348C59.1232 65.8887 58.8419 66.3789 58.8419 67.1055V70H57.7872ZM63.7872 63.0977L61.4083 67.2637L60.6876 66.4258L62.5626 63.0977H63.7872Z" fill="#2D2D2D"/>
</svg>
