<svg width="94" height="94" viewBox="0 0 94 94" fill="none" xmlns="http://www.w3.org/2000/svg">
<rect x="0.25" y="0.25" width="93.5" height="93.5" rx="46.75" fill="white"/>
<rect x="0.25" y="0.25" width="93.5" height="93.5" rx="46.75" stroke="#2D2D2D" stroke-width="0.5"/>
<path d="M46.375 30.125H39.5V28.875H46.375V22H47.625V28.875H54.5V30.125H47.625V37H46.375V30.125Z" fill="#2D2D2D"/>
<path d="M24.5177 51.0977V56.7754C24.8888 56.9316 25.2814 57.0566 25.6954 57.1504C26.1095 57.2402 26.506 57.2852 26.8849 57.2852C27.4357 57.2852 27.9318 57.207 28.3732 57.0508C28.8146 56.8906 29.1642 56.6484 29.422 56.3242C29.6837 55.9961 29.8146 55.582 29.8146 55.082V51.0977H30.8693V55.1816C30.8693 55.6855 30.7657 56.125 30.5587 56.5C30.3517 56.8711 30.0665 57.1816 29.7032 57.4316C29.34 57.6777 28.922 57.8613 28.4493 57.9824C27.9767 58.1035 27.4728 58.1641 26.9376 58.1641C26.3751 58.1641 25.7931 58.0977 25.1915 57.9648C24.59 57.8281 24.0138 57.6289 23.463 57.3672V51.0977H24.5177ZM26.1759 56.0957C26.3243 55.9395 26.4337 55.7285 26.504 55.4629C26.5782 55.1934 26.6154 54.8828 26.6154 54.5312V51.0977H27.6759V54.3379C27.6759 54.7324 27.6271 55.0781 27.5294 55.375C27.4357 55.6719 27.2853 55.9238 27.0782 56.1309L26.1759 56.0957ZM33.5177 54.9473V51.9707H32.2521V51.0977H34.6075V54.9473H33.5177ZM41.4454 58L36.4415 51.0977H37.6603L42.6583 58H41.4454ZM36.6876 58V55.498C36.6876 54.8535 36.8068 54.334 37.045 53.9395C37.2833 53.5449 37.6544 53.2559 38.1583 53.0723L38.5861 53.6348C38.0236 53.8887 37.7423 54.3789 37.7423 55.1055V58H36.6876ZM42.6876 51.0977L40.3087 55.2637L39.588 54.4258L41.463 51.0977H42.6876ZM52.2853 51.0977V60.4375H51.213V51.9707H48.8458C48.7638 52.1152 48.6896 52.2891 48.6232 52.4922C48.5607 52.6953 48.5118 52.9102 48.4767 53.1367C48.4415 53.3633 48.4239 53.584 48.4239 53.7988V54.5957C48.5138 54.6348 48.631 54.6621 48.7755 54.6777C48.9239 54.6934 49.1134 54.7012 49.3439 54.7012V55.6387C49.0196 55.6387 48.7443 55.627 48.5177 55.6035C48.2911 55.5801 48.088 55.5391 47.9083 55.4805C47.7325 55.4219 47.5509 55.3438 47.3634 55.2461L47.3458 54.0918C47.3419 53.8262 47.3614 53.5625 47.4044 53.3008C47.4513 53.0391 47.5177 52.793 47.6036 52.5625C47.6896 52.332 47.7892 52.1348 47.9025 51.9707H47.0646V51.0977H52.2853ZM57.2657 58.1289C56.6915 58.1289 56.1857 57.998 55.7482 57.7363C55.3107 57.4707 54.9689 57.0996 54.7228 56.623C54.4806 56.1465 54.3556 55.5918 54.3478 54.959V54.2559C54.3478 53.9512 54.3888 53.6523 54.4708 53.3594C54.5568 53.0625 54.6739 52.7969 54.8224 52.5625C54.9708 52.3242 55.1388 52.1426 55.3263 52.0176C55.338 52.0098 55.3497 52.002 55.3614 51.9941C55.3771 51.9824 55.3927 51.9746 55.4083 51.9707L55.4025 51.9531C55.254 51.9688 55.0646 52.0059 54.8341 52.0645C54.6075 52.123 54.3849 52.1816 54.1661 52.2402L53.9552 51.4199C54.2599 51.3301 54.5939 51.252 54.9571 51.1855C55.3204 51.1152 55.6857 51.0625 56.0528 51.0273C56.4239 50.9883 56.7696 50.9688 57.09 50.9688C57.7345 50.9688 58.2872 51.0957 58.7482 51.3496C59.2091 51.5996 59.5626 51.9609 59.8087 52.4336C60.0587 52.9023 60.1837 53.4688 60.1837 54.1328V54.959C60.1837 55.5918 60.0626 56.1465 59.8204 56.623C59.5782 57.0996 59.2384 57.4707 58.8009 57.7363C58.3634 57.998 57.8517 58.1289 57.2657 58.1289ZM57.2657 57.209C57.6329 57.209 57.9532 57.1152 58.2267 56.9277C58.504 56.7402 58.7189 56.4785 58.8712 56.1426C59.0275 55.8066 59.1056 55.4141 59.1056 54.9648V54.1445C59.1056 53.6758 59.0275 53.2734 58.8712 52.9375C58.7189 52.5977 58.5001 52.3379 58.215 52.1582C57.9298 51.9746 57.5919 51.8828 57.2013 51.8828C56.8497 51.8828 56.5431 51.9766 56.2814 52.1641C56.0236 52.3477 55.8204 52.6133 55.672 52.9609C55.5275 53.3047 55.4493 53.7168 55.4376 54.1973V54.9648C55.4376 55.4141 55.5138 55.8066 55.6661 56.1426C55.8185 56.4785 56.0314 56.7402 56.3048 56.9277C56.5821 57.1152 56.9025 57.209 57.2657 57.209ZM62.3927 58V51.9707H61.59V51.0977H63.4825V58H62.3927ZM69.6173 58V53.6699C69.6173 53.0723 69.4825 52.6406 69.213 52.375C68.9435 52.1055 68.5099 51.9707 67.9122 51.9707H65.4103V51.0977H67.965C68.8673 51.0977 69.5489 51.3164 70.0099 51.7539C70.4747 52.1875 70.7071 52.8359 70.7071 53.6992V58H69.6173ZM65.422 58V55.6445C65.422 55.2422 65.4552 54.9355 65.5216 54.7246C65.588 54.5137 65.6564 54.334 65.7267 54.1855H66.6173C66.5704 54.3613 66.5353 54.5586 66.5118 54.7773C66.4884 54.9922 66.4767 55.2578 66.4767 55.5742V58H65.422ZM39.465 70V65.1836C39.465 64.8086 39.3536 64.5137 39.131 64.2988C38.9122 64.0801 38.6114 63.9707 38.2286 63.9707H35.9083V63.0977H38.2638C38.9786 63.0977 39.5372 63.2891 39.9396 63.6719C40.3458 64.0508 40.5489 64.582 40.5489 65.2656V70H39.465ZM43.5665 63.0977V68.7754C43.9376 68.9316 44.3302 69.0566 44.7443 69.1504C45.1583 69.2402 45.5548 69.2852 45.9337 69.2852C46.4845 69.2852 46.9806 69.207 47.422 69.0508C47.8634 68.8906 48.213 68.6484 48.4708 68.3242C48.7325 67.9961 48.8634 67.582 48.8634 67.082V63.0977H49.9181V67.1816C49.9181 67.6855 49.8146 68.125 49.6075 68.5C49.4005 68.8711 49.1154 69.1816 48.7521 69.4316C48.3888 69.6777 47.9708 69.8613 47.4982 69.9824C47.0255 70.1035 46.5216 70.1641 45.9864 70.1641C45.4239 70.1641 44.8419 70.0977 44.2404 69.9648C43.6388 69.8281 43.0626 69.6289 42.5118 69.3672V63.0977H43.5665ZM45.2247 68.0957C45.3732 67.9395 45.4825 67.7285 45.5529 67.4629C45.6271 67.1934 45.6642 66.8828 45.6642 66.5312V63.0977H46.7247V66.3379C46.7247 66.7324 46.6759 67.0781 46.5782 67.375C46.4845 67.6719 46.3341 67.9238 46.1271 68.1309L45.2247 68.0957ZM54.3595 70V69.1445C54.9376 69.125 55.4025 68.9434 55.754 68.5996C56.1095 68.2559 56.2872 67.7812 56.2872 67.1758V63.9707H52.0275V63.0977H57.3771V67.1523C57.3771 67.7344 57.2521 68.2363 57.0021 68.6582C56.7521 69.0801 56.4005 69.4062 55.9474 69.6367C55.4943 69.8633 54.965 69.9844 54.3595 70ZM52.1622 72.4375V67.4102C52.1622 67.0156 52.1954 66.7129 52.2618 66.502C52.3282 66.291 52.3966 66.1113 52.4669 65.9629H53.3575C53.3068 66.1387 53.2696 66.334 53.2462 66.5488C53.2267 66.7637 53.2169 67.0293 53.2169 67.3457V72.4375H52.1622Z" fill="#2D2D2D"/>
</svg>
